<svg viewBox="0 0 7 14" fill="none" xmlns="http://www.w3.org/2000/svg">
<path d="M1.17032 14.0003C1.31972 14.0008 1.46733 13.9678 1.60231 13.9038C1.73729 13.8398 1.8562 13.7463 1.95032 13.6303L6.78032 7.63028C6.92741 7.45134 7.00781 7.2269 7.00781 6.99528C7.00781 6.76365 6.92741 6.53921 6.78032 6.36028L1.78032 0.360276C1.61058 0.156059 1.36667 0.0276347 1.10225 0.00325494C0.83782 -0.0211248 0.574539 0.0605371 0.370322 0.230276C0.166105 0.400014 0.0376816 0.643926 0.0133018 0.908352C-0.0110779 1.17278 0.0705833 1.43606 0.240322 1.64028L4.71032 7.00028L0.390323 12.3603C0.26804 12.5071 0.190362 12.6858 0.166483 12.8754C0.142603 13.0649 0.17352 13.2573 0.255576 13.4299C0.337632 13.6024 0.467392 13.7478 0.629502 13.8489C0.791613 13.95 0.979289 14.0025 1.17032 14.0003Z" fill="white"/>
</svg>
