<svg width="20" height="21" viewBox="0 0 20 21" fill="none" xmlns="http://www.w3.org/2000/svg">
<path fill-rule="evenodd" clip-rule="evenodd" d="M6.25 0.798828H13.75C17.2013 0.798828 20 3.59758 20 7.04883V14.5488C20 18.0001 17.2013 20.7988 13.75 20.7988H6.25C2.79875 20.7988 0 18.0001 0 14.5488V7.04883C0 3.59758 2.79875 0.798828 6.25 0.798828ZM13.75 18.9238C16.1625 18.9238 18.125 16.9613 18.125 14.5488V7.04883C18.125 4.63633 16.1625 2.67383 13.75 2.67383H6.25C3.8375 2.67383 1.875 4.63633 1.875 7.04883V14.5488C1.875 16.9613 3.8375 18.9238 6.25 18.9238H13.75Z" fill="#0C111F"/>
<path fill-rule="evenodd" clip-rule="evenodd" d="M5 10.7988C5 8.03758 7.23875 5.79883 10 5.79883C12.7613 5.79883 15 8.03758 15 10.7988C15 13.5601 12.7613 15.7988 10 15.7988C7.23875 15.7988 5 13.5601 5 10.7988ZM6.875 10.7988C6.875 12.5213 8.2775 13.9238 10 13.9238C11.7225 13.9238 13.125 12.5213 13.125 10.7988C13.125 9.07508 11.7225 7.67383 10 7.67383C8.2775 7.67383 6.875 9.07508 6.875 10.7988Z" fill="#0C111F"/>
<circle cx="15.3752" cy="5.42406" r="0.66625" fill="#0C111F"/>
</svg>
