<svg width="20" height="17" viewBox="0 0 20 17" fill="none" xmlns="http://www.w3.org/2000/svg">
<path d="M19.5556 2.67983C18.8283 2.99883 18.0534 3.21027 17.2456 3.31294C18.0767 2.81672 18.711 2.03694 19.0092 1.09705C18.2343 1.55905 17.3788 1.88538 16.467 2.06749C15.7312 1.28405 14.6826 0.798828 13.5386 0.798828C11.319 0.798828 9.53211 2.60038 9.53211 4.80894C9.53211 5.12672 9.559 5.43227 9.625 5.72316C6.292 5.56061 3.34278 3.96316 1.36156 1.52972C1.01567 2.12983 0.812778 2.81672 0.812778 3.55616C0.812778 4.94461 1.52778 6.17538 2.59356 6.88794C1.94944 6.87572 1.31756 6.68872 0.782222 6.39416C0.782222 6.40638 0.782222 6.42227 0.782222 6.43816C0.782222 8.38638 2.17189 10.0046 3.99422 10.3774C3.66789 10.4666 3.31222 10.5094 2.94311 10.5094C2.68644 10.5094 2.42733 10.4947 2.18411 10.4409C2.70356 12.0286 4.17756 13.1958 5.93022 13.2337C4.56622 14.3007 2.83433 14.9436 0.959444 14.9436C0.630667 14.9436 0.315333 14.9289 0 14.8886C1.77589 16.0338 3.88056 16.6877 6.15022 16.6877C13.5276 16.6877 17.5609 10.5766 17.5609 5.27949C17.5609 5.10227 17.5548 4.93116 17.5462 4.76127C18.3419 4.19661 19.0104 3.49138 19.5556 2.67983Z" fill="#0C111F"/>
</svg>
